<svg width="43" height="41" viewBox="0 0 43 41" fill="none" xmlns="http://www.w3.org/2000/svg">
<path d="M42.9171 22.4729C42.531 18.6156 40.7961 14.9791 38.0318 12.2332C35.6695 9.88673 32.778 8.37886 29.7355 7.70839V5.58877C30.9782 5.28169 31.9019 4.1644 31.9019 2.83639C31.9019 1.27237 30.6209 0 29.0463 0H22.9994C21.4248 0 20.1439 1.27237 20.1439 2.83639C20.1439 4.16432 21.0675 5.28161 22.3101 5.58877V7.71431C19.277 8.38762 16.3951 9.89341 14.0395 12.2333C13.524 12.7453 13.0486 13.2825 12.6135 13.8407C12.5924 13.8392 12.5713 13.8376 12.5498 13.8376H6.56491C6.10114 13.8376 5.72505 14.2111 5.72505 14.6718C5.72505 15.1326 6.10114 15.506 6.56491 15.506H11.4707C10.8549 16.5301 10.3584 17.6055 9.98043 18.7125H0.839856C0.376088 18.7125 0 19.086 0 19.5467C0 20.0075 0.376088 20.381 0.839856 20.381H9.50583C9.26378 21.4363 9.12487 22.5104 9.08901 23.5875H5.37508C4.91131 23.5875 4.53522 23.961 4.53522 24.4217C4.53522 24.8825 4.91131 25.256 5.37508 25.256H9.1158C9.18668 26.3358 9.36146 27.4099 9.64021 28.4625H4.19928C3.73551 28.4625 3.35943 28.836 3.35943 29.2967C3.35943 29.7575 3.73551 30.131 4.19928 30.131H10.1762C11.0001 32.2959 12.2877 34.325 14.0395 36.065C16.8064 38.8135 20.4712 40.5372 24.3586 40.9187C24.9134 40.9731 25.4686 41 26.0231 41C29.3004 41 32.536 40.0579 35.2815 38.282C35.6702 38.0306 35.7801 37.5137 35.527 37.1277C35.2739 36.7416 34.7536 36.6324 34.3649 36.8838C28.3551 40.7711 20.3066 39.9306 15.2272 34.8852C9.2674 28.9654 9.2674 19.3331 15.2272 13.4131C21.1869 7.49332 30.8841 7.49332 36.844 13.4131C41.9166 18.4519 42.7674 26.4397 38.8669 32.4063C38.6142 32.7927 38.7249 33.3095 39.1138 33.5603C39.503 33.8113 40.023 33.7014 40.2756 33.315C42.3596 30.127 43.2977 26.2766 42.9171 22.4729ZM21.8236 2.83647C21.8236 2.19245 22.351 1.66855 22.9994 1.66855H29.0463C29.6947 1.66855 30.2221 2.19245 30.2221 2.83647C30.2221 3.4805 29.6947 4.0044 29.0463 4.0044H28.8957H23.15H22.9994C22.351 4.0044 21.8236 3.48042 21.8236 2.83647ZM23.9898 7.4275V5.67286H28.0558V7.4245C26.7057 7.26499 25.3397 7.26599 23.9898 7.4275Z" fill="#2B3445"/>
<path d="M37.4385 34.6404C37.2168 34.6404 37.0009 34.7296 36.8448 34.8848C36.6877 35.04 36.5986 35.2552 36.5986 35.4746C36.5986 35.694 36.6877 35.9092 36.8448 36.0644C37.0009 36.2204 37.2168 36.3088 37.4385 36.3088C37.6594 36.3088 37.8752 36.2204 38.0322 36.0644C38.1885 35.9092 38.2783 35.694 38.2783 35.4746C38.2783 35.2552 38.1885 35.04 38.0322 34.8848C37.8752 34.7296 37.6593 34.6404 37.4385 34.6404Z" fill="#2B3445"/>
<path d="M26.0357 11.2078C18.8517 11.2078 13.0071 17.0132 13.0071 24.1491C13.0071 31.2851 18.8517 37.0905 26.0357 37.0905C33.2197 37.0905 39.0643 31.2851 39.0643 24.1491C39.0643 17.0132 33.2197 11.2078 26.0357 11.2078ZM26.0357 35.422C19.7778 35.422 14.6868 30.365 14.6868 24.1491C14.6868 17.9333 19.7778 12.8762 26.0357 12.8762C32.2935 12.8762 37.3846 17.9333 37.3846 24.1491C37.3846 30.365 32.2935 35.422 26.0357 35.422Z" fill="#2B3445"/>
<path d="M31.3483 17.6922L27.1885 21.8241C26.8406 21.6532 26.4493 21.5567 26.0357 21.5567C25.622 21.5567 25.2308 21.6532 24.8829 21.8241L23.0212 19.9748C22.6931 19.6491 22.1615 19.6491 21.8334 19.9748C21.5054 20.3006 21.5054 20.8288 21.8334 21.1546L23.6951 23.0038C23.523 23.3494 23.4259 23.738 23.4259 24.1489C23.4259 25.5783 24.5966 26.7412 26.0357 26.7412C27.4748 26.7412 28.6454 25.5783 28.6454 24.1489C28.6454 23.738 28.5483 23.3494 28.3763 23.0038L32.414 18.9932L32.536 18.872C32.864 18.5462 32.864 18.018 32.536 17.6922C32.208 17.3664 31.6764 17.3664 31.3483 17.6922ZM26.0357 25.0728C25.5229 25.0728 25.1056 24.6584 25.1056 24.149C25.1056 23.6396 25.5229 23.2252 26.0357 23.2252C26.5485 23.2252 26.9657 23.6396 26.9657 24.149C26.9657 24.6584 26.5485 25.0728 26.0357 25.0728Z" fill="#2B3445"/>
<path d="M35.0152 23.3248H34.2371C33.7733 23.3248 33.3972 23.6983 33.3972 24.159C33.3972 24.6198 33.7733 24.9933 34.2371 24.9933H35.0152C35.4789 24.9933 35.855 24.6198 35.855 24.159C35.855 23.6983 35.4789 23.3248 35.0152 23.3248Z" fill="#2B3445"/>
<path d="M17.8339 23.3046H17.0559C16.5921 23.3046 16.2161 23.678 16.2161 24.1388C16.2161 24.5995 16.5921 24.973 17.0559 24.973H17.8339C18.2977 24.973 18.6738 24.5995 18.6738 24.1388C18.6738 23.678 18.2977 23.3046 17.8339 23.3046Z" fill="#2B3445"/>
<path d="M26.0457 16.8365C26.5094 16.8365 26.8855 16.463 26.8855 16.0023V15.2295C26.8855 14.7687 26.5094 14.3953 26.0457 14.3953C25.5819 14.3953 25.2058 14.7687 25.2058 15.2295V16.0023C25.2058 16.463 25.5819 16.8365 26.0457 16.8365Z" fill="#2B3445"/>
<path d="M26.0251 31.4614C25.5614 31.4614 25.1853 31.8349 25.1853 32.2956V33.0685C25.1853 33.5292 25.5614 33.9027 26.0251 33.9027C26.4889 33.9027 26.865 33.5292 26.865 33.0685V32.2956C26.865 31.8349 26.4889 31.4614 26.0251 31.4614Z" fill="#2B3445"/>
<path d="M0.839843 28.4623C0.618964 28.4623 0.402285 28.5515 0.246074 28.7067C0.0898632 28.8619 0 29.0771 0 29.2965C0 29.5167 0.0897792 29.7311 0.246074 29.8863C0.402369 30.0415 0.618964 30.1307 0.839843 30.1307C1.06072 30.1307 1.2774 30.0415 1.43353 29.8863C1.58974 29.7311 1.67969 29.5159 1.67969 29.2965C1.67969 29.0771 1.58982 28.8619 1.43353 28.7067C1.2774 28.5515 1.06072 28.4623 0.839843 28.4623Z" fill="#2B3445"/>
</svg>
