<svg width="41" height="41" viewBox="0 0 41 41" fill="none" xmlns="http://www.w3.org/2000/svg">
<g clip-path="url(#clip0_116_3523)">
<path d="M35.8324 14.7331C35.2312 14.1757 34.4198 13.9177 33.6056 14.0262C33.4637 14.045 33.316 14.0668 33.1639 14.0911C30.5163 10.9007 26.6601 8.93695 22.5269 8.68807C22.3604 8.67805 22.1996 8.73691 22.079 8.8503C21.9585 8.96378 21.8902 9.12201 21.8902 9.28753V12.019C21.8902 12.3148 21.6499 12.5555 21.3545 12.5555H19.6456C19.3502 12.5555 19.1099 12.3148 19.1099 12.019V10.2771C19.8527 9.21642 20.2902 7.92716 20.2902 6.53683C20.2902 2.9324 17.3575 0 13.7526 0C10.1482 0 7.21577 2.9324 7.21577 6.53683C7.21577 6.86387 7.23987 7.18931 7.28736 7.5041C7.33677 7.8321 7.64235 8.0576 7.97083 8.00836C8.29883 7.95887 8.52458 7.65289 8.47509 7.32488C8.43657 7.06927 8.41695 6.80413 8.41695 6.53683C8.41695 3.59474 10.8105 1.20118 13.7526 1.20118C16.6951 1.20118 19.089 3.59474 19.089 6.53683C19.089 9.4794 16.6951 11.8733 13.7526 11.8733C11.8811 11.8733 10.179 10.9192 9.19972 9.32125C9.02635 9.03849 8.65671 8.9496 8.37387 9.12297C8.09111 9.29626 8.0023 9.66607 8.17559 9.94882C8.666 10.749 9.30446 11.4171 10.0446 11.9277C9.23768 12.5706 8.49895 13.295 7.83822 14.0913C7.68535 14.0669 7.53697 14.045 7.39451 14.0261C6.58058 13.9178 5.76883 14.1756 5.16768 14.733C4.56572 15.2911 4.24725 16.0821 4.29378 16.9033C4.36497 18.1583 4.54018 19.2909 4.76456 20.288C4.50494 21.4151 4.37474 22.575 4.38018 23.7387C4.38571 24.9972 4.41389 26.2818 4.46394 27.5572C4.56941 30.2235 5.66961 32.7316 7.56187 34.6196C7.90261 34.9596 8.26376 35.2735 8.64205 35.561V38.6569C8.64205 39.9489 9.69277 41 10.9844 41H15.2189C16.1787 41 17.031 40.4254 17.3899 39.5367L18.0926 37.8021C18.8945 37.815 19.6971 37.8231 20.5 37.8231C21.3028 37.8231 22.1055 37.815 22.9074 37.8021L23.61 39.5362C23.969 40.4254 24.8213 41.0001 25.7811 41.0001H30.0157C31.3073 41.0001 32.358 39.949 32.358 38.657V35.5639C32.873 35.1713 33.3564 34.729 33.8014 34.2384C34.0243 33.9928 34.0059 33.6129 33.7601 33.39C33.5144 33.1671 33.1345 33.1856 32.9118 33.4314C31.2025 35.3155 28.862 36.408 26.3212 36.5076C22.4587 36.6601 18.5415 36.6601 14.6785 36.5076C12.313 36.4147 10.0868 35.4422 8.41006 33.7693C6.73281 32.0958 5.75754 29.8727 5.66408 27.5099C5.6146 26.2487 5.58673 24.9782 5.58128 23.7333C5.58016 23.4971 5.58633 23.2612 5.59722 23.0257C6.12686 24.3809 6.62126 25.1465 6.66259 25.2093C6.7779 25.3845 6.96913 25.4795 7.16436 25.4795C7.27735 25.4795 7.39178 25.4477 7.49332 25.381C7.77039 25.1993 7.84783 24.8272 7.66661 24.5499C7.64763 24.5208 5.76242 21.5846 5.49296 16.8354C5.46677 16.3731 5.64575 15.9279 5.98424 15.6141C6.32209 15.3009 6.7783 15.1561 7.23611 15.217C9.09025 15.4634 11.92 16.1772 14.8711 18.1782C15.1456 18.3644 15.5191 18.2926 15.7053 18.0181C15.8914 17.7436 15.8198 17.3701 15.5452 17.1839C13.2416 15.6219 11.004 14.796 9.19219 14.362C9.79943 13.6967 10.4704 13.0938 11.195 12.5587C11.9885 12.8944 12.8544 13.0745 13.7526 13.0745C15.3297 13.0745 16.7781 12.5131 17.9086 11.5798V12.019C17.9086 12.9772 18.6878 13.7567 19.6455 13.7567H21.3544C22.3121 13.7567 23.0913 12.9772 23.0913 12.019V9.94034C26.433 10.2988 29.5372 11.8771 31.8073 14.362C29.9956 14.7961 27.7581 15.6221 25.4547 17.1839C25.1801 17.3701 25.1085 17.7435 25.2946 18.0181C25.4809 18.2926 25.8543 18.3644 26.1288 18.1782C29.0799 16.1772 31.9096 15.4634 33.7638 15.217C34.2216 15.1562 34.678 15.301 35.0157 15.6141C35.3542 15.9278 35.5331 16.3731 35.507 16.8354C35.2376 21.5846 33.3524 24.5208 33.3333 24.5499C33.1517 24.8269 33.2286 25.1988 33.5054 25.3809C33.6072 25.4478 33.7217 25.4799 33.835 25.4799C34.0302 25.4799 34.2218 25.3847 34.3372 25.2094C34.3786 25.1467 34.8729 24.381 35.4026 23.0258C35.4135 23.2614 35.4197 23.4973 35.4185 23.7337C35.4131 24.9782 35.3852 26.2489 35.3357 27.5101C35.279 28.9539 34.9022 30.3283 34.2155 31.5948C34.0574 31.8865 34.1657 32.251 34.4574 32.4091C34.5483 32.4584 34.6463 32.4818 34.743 32.4818C34.9563 32.4818 35.1628 32.368 35.2716 32.1673C36.0467 30.7376 36.4721 29.1865 36.536 27.5572C36.5861 26.2821 36.6143 24.9975 36.6198 23.7392C36.6253 22.5752 36.495 21.4153 36.2354 20.2883C36.4598 19.2912 36.635 18.1586 36.7062 16.9035C36.7528 16.0822 36.4343 15.2913 35.8324 14.7331ZM26.3685 37.7078C28.0797 37.6407 29.7102 37.174 31.1568 36.3566V38.6569C31.1568 39.2866 30.6449 39.7988 30.0157 39.7988H25.7811C25.3136 39.7988 24.8986 39.5191 24.7235 39.0856L24.1928 37.7758C24.9194 37.7579 25.6452 37.7364 26.3685 37.7078ZM16.8073 37.7758L16.2764 39.0863C16.1015 39.5191 15.6865 39.7988 15.2189 39.7988H10.9844C10.3552 39.7988 9.84323 39.2866 9.84323 38.6569V36.351C11.2959 37.171 12.9316 37.641 14.6314 37.7078C15.355 37.7364 16.0807 37.7579 16.8073 37.7758Z" fill="#2B3445"/>
<path d="M32.5533 21.2859C32.655 21.3529 32.7696 21.3849 32.8829 21.3849C33.0781 21.3849 33.2697 21.2898 33.3851 21.1144C33.4147 21.0695 34.1099 19.9947 34.2083 18.26C34.23 17.8757 34.0808 17.5054 33.799 17.244C33.5173 16.9829 33.1371 16.862 32.756 16.9127C32.0792 17.0027 31.0477 17.2623 29.9772 17.9882C29.7026 18.1744 29.6311 18.5478 29.8172 18.8223C30.0034 19.0968 30.3769 19.1686 30.6513 18.9824C31.5278 18.3882 32.3657 18.1764 32.9143 18.1035C32.9404 18.1003 32.9633 18.1072 32.9824 18.1249C33.0017 18.1427 33.0107 18.1653 33.0091 18.192C32.9306 19.5777 32.3919 20.4381 32.3802 20.4566C32.1998 20.7335 32.277 21.1041 32.5533 21.2859Z" fill="#2B3445"/>
<path d="M8.08562 18.1033C8.63423 18.1762 9.47209 18.3878 10.3486 18.9822C10.623 19.1684 10.9965 19.0966 11.1828 18.8221C11.3689 18.5476 11.2973 18.1741 11.0227 17.9879C9.95224 17.2621 8.92075 17.0025 8.24385 16.9125C7.86236 16.8617 7.48247 16.9826 7.20092 17.2438C6.91905 17.5051 6.76986 17.8754 6.79164 18.2598C6.89006 19.9945 7.58529 21.0693 7.61484 21.1142C7.73024 21.2896 7.92178 21.3847 8.11709 21.3847C8.2304 21.3847 8.34499 21.3527 8.44669 21.2857C8.72376 21.1034 8.80056 20.731 8.6183 20.4539C8.61285 20.4455 8.06985 19.5849 7.99089 18.1917C7.98929 18.165 7.99834 18.1423 8.01763 18.1245C8.03653 18.107 8.05968 18.0999 8.08562 18.1033Z" fill="#2B3445"/>
<path d="M22.5802 23.64C21.1998 23.5948 19.8001 23.5948 18.4197 23.64C16.101 23.7161 14.239 25.6004 14.1808 27.9301C14.1679 28.4448 14.1679 28.9669 14.1808 29.4816C14.239 31.8112 16.101 33.6956 18.4197 33.7717C19.1099 33.7943 19.8049 33.8056 20.5 33.8056C21.1951 33.8056 21.89 33.7943 22.5803 33.7717C24.899 33.6956 26.7609 31.8113 26.8192 29.4816C26.832 28.9669 26.832 28.4449 26.8192 27.9301C26.7609 25.6005 24.899 23.7161 22.5802 23.64ZM25.6182 29.4516C25.5759 31.1456 24.2241 32.516 22.5407 32.5711C21.1866 32.6156 19.8132 32.6156 18.459 32.5711C16.7757 32.516 15.4239 31.1457 15.3815 29.4516C15.3692 28.9568 15.3692 28.455 15.3815 27.9601C15.4238 26.266 16.7756 24.8957 18.459 24.8406C19.1361 24.8184 19.818 24.8072 20.4998 24.8072C21.1816 24.8072 21.8636 24.8184 22.5406 24.8406C24.224 24.8957 25.5758 26.266 25.6181 27.9601C25.6306 28.4549 25.6306 28.9568 25.6182 29.4516Z" fill="#2B3445"/>
<path d="M18.9912 27.5283C18.6594 27.5283 18.3906 27.7972 18.3906 28.1289V29.4056C18.3906 29.7373 18.6594 30.0062 18.9912 30.0062C19.323 30.0062 19.5918 29.7373 19.5918 29.4056V28.1289C19.5918 27.7972 19.323 27.5283 18.9912 27.5283Z" fill="#2B3445"/>
<path d="M22.009 27.5283C21.6773 27.5283 21.4084 27.7972 21.4084 28.1289V29.4056C21.4084 29.7373 21.6773 30.0062 22.009 30.0062C22.3408 30.0062 22.6096 29.7373 22.6096 29.4056V28.1289C22.6096 27.7972 22.3407 27.5283 22.009 27.5283Z" fill="#2B3445"/>
<path d="M12.1806 27.819C12.7428 27.819 13.2002 27.0597 13.2002 26.1264C13.2002 25.1931 12.7428 24.4338 12.1806 24.4338C11.6185 24.4338 11.1611 25.1931 11.1611 26.1264C11.1611 27.0597 11.6185 27.819 12.1806 27.819Z" fill="#2B3445"/>
<path d="M28.8196 24.4338C28.2574 24.4338 27.8 25.1931 27.8 26.1264C27.8 27.0597 28.2575 27.819 28.8196 27.819C29.3817 27.819 29.8391 27.0597 29.8391 26.1264C29.8391 25.1931 29.3817 24.4338 28.8196 24.4338Z" fill="#2B3445"/>
<path d="M13.6986 9.19896C12.8866 9.20328 12.5661 9.17373 11.879 8.80353C11.587 8.6461 11.2228 8.75533 11.0654 9.04737C10.9081 9.33941 11.0172 9.70361 11.3092 9.86096C12.0097 10.2384 12.4922 10.3566 13.1014 10.3892V10.7594C13.1014 11.0911 13.3702 11.36 13.702 11.36C14.0337 11.36 14.3026 11.0911 14.3026 10.7594V10.3462C15.5833 10.116 16.3632 9.18358 16.4917 8.26429C16.6413 7.19405 15.9559 6.27483 14.7454 5.92249C13.9806 5.69979 13.1327 5.42953 12.6431 5.1133C12.415 4.96596 12.4167 4.72933 12.438 4.60144C12.4829 4.33278 12.7035 4.00278 13.1887 3.88242C13.3845 3.83381 13.5674 3.81059 13.736 3.80459C13.7406 3.80434 13.7452 3.80426 13.7498 3.80386C14.4907 3.78168 14.9487 4.09919 14.9804 4.12185C15.2442 4.31829 15.6178 4.26583 15.8172 4.00334C16.0178 3.73924 15.9663 3.36247 15.7023 3.1618C15.6708 3.13794 15.1504 2.75228 14.3025 2.63561V2.31457C14.3025 1.98289 14.0337 1.71399 13.7019 1.71399C13.3701 1.71399 13.1013 1.98289 13.1013 2.31457V2.67252C13.0348 2.68542 12.9678 2.69951 12.8994 2.71649C12.0344 2.93109 11.3883 3.59342 11.2531 4.40381C11.1379 5.09512 11.4207 5.7536 11.9913 6.12212C12.4906 6.44468 13.1912 6.72102 14.4095 7.07569C15.0418 7.25971 15.367 7.63231 15.302 8.09789C15.203 8.80802 14.4019 9.19519 13.6986 9.19896Z" fill="#2B3445"/>
</g>
<defs>
<clipPath id="clip0_116_3523">
<rect width="41" height="41" fill="white"/>
</clipPath>
</defs>
</svg>
