<svg width="41" height="41" viewBox="0 0 41 41" fill="none" xmlns="http://www.w3.org/2000/svg">
<g clip-path="url(#clip0_116_3516)">
<path d="M40.714 14.7289L36.1334 2.81934C35.2654 0.567959 32.7366 -0.553465 30.4852 0.314525C30.4526 0.327154 30.42 0.340125 30.3875 0.353522L7.49688 9.84237C5.31726 10.7365 4.246 13.2037 5.08097 15.4067L5.71038 17.0867H4.26657C1.91134 17.0893 0.00264527 18.998 0 21.3532V36.7129C0.00264527 39.0681 1.91134 40.9768 4.26657 40.9794H33.2792C35.6345 40.9768 37.5432 39.0681 37.5458 36.7129V21.3532C37.5444 21.1216 37.5239 20.8906 37.4844 20.6624L38.2769 20.3415C40.476 19.4402 41.5568 16.9511 40.714 14.7289ZM4.26657 18.452H33.2792C34.8115 18.4564 36.0754 19.653 36.1634 21.1826H1.38237C1.47043 19.6529 2.73436 18.4563 4.26657 18.452ZM11.1279 14.3398L15.6907 12.0577L16.6287 14.4039L12.0659 16.6853L11.1279 14.3398ZM36.1805 36.7129C36.1786 38.3145 34.8808 39.6123 33.2792 39.6142H4.26657C2.66498 39.6123 1.36718 38.3145 1.3653 36.7129V28.0091H36.1805V36.7129ZM36.1805 26.6438H1.3653V22.5479H36.1805V26.6438ZM37.7649 19.0801L37.0516 19.3688C36.3147 17.9674 34.8627 17.089 33.2792 17.0867H14.3166L17.8015 15.3439C18.1193 15.1853 18.2624 14.8095 18.1305 14.4797L16.6826 10.8616C16.5426 10.5116 16.1454 10.3413 15.7954 10.4812C15.7777 10.4883 15.7604 10.4961 15.7434 10.5046L9.95519 13.4004C9.63767 13.5593 9.49491 13.935 9.62683 14.2647L10.7559 17.0867H7.16784L6.35958 14.9309C5.78658 13.4173 6.52256 11.7226 8.01979 11.1081L30.9098 1.61924C32.44 0.984718 34.1949 1.7108 34.8295 3.24105C34.8394 3.26486 34.849 3.28883 34.8582 3.3129L39.4388 15.2224C40.0183 16.7494 39.276 18.4601 37.7649 19.0801Z" fill="#2B3445"/>
<path d="M24.5561 37.6945C25.8283 38.4336 27.3991 38.4336 28.6712 37.6945C30.6272 38.8309 33.1341 38.1664 34.2704 36.2105C35.4068 34.2545 34.7423 31.7476 32.7864 30.6113C32.1586 30.2466 31.4452 30.0552 30.7192 30.057C29.9995 30.0573 29.2928 30.2485 28.6712 30.6113C26.7153 29.4749 24.2084 30.1393 23.0721 32.0953C21.9357 34.0513 22.6002 36.5581 24.5561 37.6945ZM29.8126 31.5889C30.103 31.4819 30.4097 31.4256 30.7192 31.4223C32.2273 31.4223 33.4498 32.6449 33.4498 34.1529C33.4498 35.661 32.2273 36.8836 30.7192 36.8836C30.4097 36.8803 30.103 36.824 29.8126 36.717C31.0213 35.2212 31.0213 33.0846 29.8126 31.5889ZM28.6712 32.3658C29.5815 33.3834 29.5815 34.9225 28.6712 35.9401C27.761 34.9225 27.761 33.3833 28.6712 32.3658ZM26.6233 31.4223C26.9328 31.4255 27.2395 31.4819 27.5299 31.5889C26.3212 33.0846 26.3212 35.2213 27.5299 36.717C27.2395 36.824 26.9328 36.8803 26.6233 36.8836C25.1152 36.8836 23.8927 35.661 23.8927 34.1529C23.8927 32.6448 25.1152 31.4223 26.6233 31.4223Z" fill="#2B3445"/>
<path d="M28.7958 14.1091L29.3503 15.3567L35.8629 12.4617L35.3083 11.2141L28.7958 14.1091Z" fill="#2B3445"/>
<path d="M33.8548 8.32394L24.448 12.6658L25.0199 13.9048L34.4267 9.56301L33.8548 8.32394Z" fill="#2B3445"/>
</g>
<defs>
<clipPath id="clip0_116_3516">
<rect width="41" height="41" fill="white"/>
</clipPath>
</defs>
</svg>
