<svg width="42" height="42" viewBox="0 0 42 42" fill="none" xmlns="http://www.w3.org/2000/svg">
<path d="M38.4295 1.3031H20.1918C19.6741 1.30465 19.178 1.51101 18.8118 1.87713C18.4457 2.24325 18.2393 2.73937 18.2378 3.25713V12.7212C16.7062 11.4899 14.8577 10.7167 12.9055 10.4909C10.9533 10.2651 8.9771 10.5959 7.20487 11.4451C5.43263 12.2943 3.93661 13.6273 2.88944 15.2902C1.84227 16.9531 1.28662 18.8783 1.28662 20.8434C1.28662 22.8086 1.84227 24.7337 2.88944 26.3967C3.93661 28.0596 5.43263 29.3926 7.20487 30.2418C8.9771 31.0909 10.9533 31.4217 12.9055 31.1959C14.8577 30.9701 16.7062 30.197 18.2378 28.9657V38.4297C18.2393 38.9475 18.4457 39.4436 18.8118 39.8097C19.178 40.1758 19.6741 40.3822 20.1918 40.3838H38.4295C38.9472 40.3822 39.4434 40.1758 39.8095 39.8097C40.1756 39.4436 40.382 38.9475 40.3835 38.4297V3.25713C40.382 2.73937 40.1756 2.24325 39.8095 1.87713C39.4434 1.51101 38.9472 1.30465 38.4295 1.3031ZM11.7244 29.9622C9.92083 29.9622 8.1578 29.4274 6.65822 28.4255C5.15864 27.4235 3.98985 25.9993 3.29967 24.333C2.60949 22.6668 2.42891 20.8333 2.78076 19.0644C3.13261 17.2956 4.00109 15.6707 5.27638 14.3955C6.55167 13.1202 8.17649 12.2517 9.94537 11.8998C11.7142 11.548 13.5477 11.7286 15.214 12.4187C16.8802 13.1089 18.3044 14.2777 19.3064 15.7773C20.3084 17.2769 20.8432 19.0399 20.8432 20.8434C20.8406 23.2611 19.879 25.579 18.1695 27.2886C16.4599 28.9981 14.142 29.9597 11.7244 29.9622ZM39.0808 38.4297C39.0808 38.6025 39.0122 38.7681 38.89 38.8903C38.7679 39.0124 38.6022 39.0811 38.4295 39.0811H20.1918C20.0191 39.0811 19.8534 39.0124 19.7313 38.8903C19.6091 38.7681 19.5405 38.6025 19.5405 38.4297V27.7151C21.2191 25.8196 22.1458 23.3753 22.1458 20.8434C22.1458 18.3115 21.2191 15.8672 19.5405 13.9717V3.25713C19.5405 3.08439 19.6091 2.91871 19.7313 2.79656C19.8534 2.67441 20.0191 2.60579 20.1918 2.60579H21.6378L22.1654 4.71614C22.2003 4.85736 22.2815 4.98282 22.396 5.07254C22.5105 5.16225 22.6517 5.21105 22.7972 5.21117H35.8241C35.9696 5.21105 36.1108 5.16225 36.2253 5.07254C36.3398 4.98282 36.421 4.85736 36.4559 4.71614L36.9835 2.60579H38.4295C38.6022 2.60579 38.7679 2.67441 38.89 2.79656C39.0122 2.91871 39.0808 3.08439 39.0808 3.25713V38.4297Z" fill="#2B3445"/>
<path d="M16.2838 3.25673H7.81628V1.95404C7.81648 1.83016 7.78135 1.7088 7.71501 1.60418C7.64868 1.49957 7.55388 1.41603 7.44175 1.36339C7.32962 1.31074 7.2048 1.29116 7.08194 1.30695C6.95907 1.32273 6.84325 1.37322 6.74807 1.4525L2.84001 4.70923C2.76625 4.77034 2.70688 4.84698 2.66613 4.93367C2.62538 5.02036 2.60425 5.11497 2.60425 5.21076C2.60425 5.30655 2.62538 5.40116 2.66613 5.48785C2.70688 5.57454 2.76625 5.65118 2.84001 5.7123L6.74807 8.96902C6.86526 9.06612 7.01274 9.11912 7.16493 9.11883C7.25924 9.11887 7.35248 9.09889 7.4385 9.06021C7.55156 9.00788 7.64724 8.92423 7.7142 8.81918C7.78116 8.71412 7.81658 8.59206 7.81628 8.46748V7.16479H16.2838C16.4565 7.16479 16.6222 7.09617 16.7443 6.97402C16.8665 6.85187 16.9351 6.6862 16.9351 6.51345V3.90807C16.9351 3.73533 16.8665 3.56965 16.7443 3.4475C16.6222 3.32535 16.4565 3.25673 16.2838 3.25673ZM15.6324 5.86211H7.16493C6.99218 5.86211 6.82651 5.93073 6.70436 6.05288C6.58221 6.17503 6.51359 6.3407 6.51359 6.51345V7.08012L4.27296 5.21076L6.51359 3.3414V3.90807C6.51359 4.08082 6.58221 4.24649 6.70436 4.36864C6.82651 4.49079 6.99218 4.55942 7.16493 4.55942H15.6324V5.86211Z" fill="#2B3445"/>
<path d="M16.7006 35.9738L12.7925 32.717C12.6973 32.6377 12.5815 32.5873 12.4586 32.5715C12.3358 32.5557 12.2109 32.5753 12.0988 32.6279C11.9867 32.6806 11.8919 32.7641 11.8255 32.8687C11.7592 32.9733 11.7241 33.0947 11.7243 33.2186V34.5213H3.25681C3.08407 34.5213 2.91839 34.5899 2.79624 34.712C2.67409 34.8342 2.60547 34.9999 2.60547 35.1726V37.778C2.60547 37.9507 2.67409 38.1164 2.79624 38.2385C2.91839 38.3607 3.08407 38.4293 3.25681 38.4293H11.7243V39.732C11.724 39.8566 11.7594 39.9786 11.8264 40.0837C11.8933 40.1888 11.989 40.2724 12.1021 40.3247C12.1881 40.3634 12.2813 40.3834 12.3756 40.3834C12.5278 40.3837 12.6753 40.3307 12.7925 40.2335L16.7006 36.9768C16.7743 36.9157 16.8337 36.8391 16.8744 36.7524C16.9152 36.6657 16.9363 36.5711 16.9363 36.4753C16.9363 36.3795 16.9152 36.2849 16.8744 36.1982C16.8337 36.1115 16.7743 36.0349 16.7006 35.9738ZM13.027 38.3446V37.778C13.027 37.6052 12.9584 37.4396 12.8362 37.3174C12.7141 37.1953 12.5484 37.1266 12.3756 37.1266H3.90816V35.8239H12.3756C12.5484 35.8239 12.7141 35.7553 12.8362 35.6332C12.9584 35.511 13.027 35.3453 13.027 35.1726V34.6059L15.2676 36.4753L13.027 38.3446Z" fill="#2B3445"/>
<path d="M11.7243 17.5863C12.0698 17.5863 12.4011 17.7236 12.6454 17.9679C12.8897 18.2122 13.027 18.5435 13.027 18.889H14.3296C14.3275 18.3131 14.1346 17.7541 13.781 17.2995C13.4275 16.8448 12.9333 16.5201 12.3756 16.3761V14.981H11.0729V16.3761C10.4596 16.534 9.92498 16.9103 9.56939 17.4343C9.21381 17.9584 9.06172 18.5942 9.14167 19.2225C9.22162 19.8507 9.52811 20.4282 10.0036 20.8465C10.4791 21.2648 11.091 21.4952 11.7243 21.4944C11.9819 21.4944 12.2338 21.5708 12.448 21.7139C12.6622 21.8571 12.8292 22.0605 12.9278 22.2986C13.0264 22.5366 13.0522 22.7985 13.0019 23.0512C12.9517 23.3039 12.8276 23.536 12.6454 23.7182C12.4632 23.9004 12.2311 24.0245 11.9784 24.0747C11.7257 24.125 11.4638 24.0992 11.2258 24.0006C10.9877 23.902 10.7843 23.735 10.6411 23.5208C10.498 23.3066 10.4216 23.0547 10.4216 22.7971H9.1189C9.12105 23.373 9.31398 23.932 9.66752 24.3866C10.0211 24.8413 10.5153 25.166 11.0729 25.31V26.7052H12.3756V25.31C12.9889 25.1521 13.5236 24.7758 13.8792 24.2518C14.2347 23.7277 14.3868 23.0919 14.3069 22.4636C14.2269 21.8354 13.9204 21.2579 13.4449 20.8396C12.9694 20.4213 12.3576 20.1909 11.7243 20.1917C11.3788 20.1917 11.0474 20.0545 10.8031 19.8102C10.5588 19.5659 10.4216 19.2345 10.4216 18.889C10.4216 18.5435 10.5588 18.2122 10.8031 17.9679C11.0474 17.7236 11.3788 17.5863 11.7243 17.5863Z" fill="#2B3445"/>
<path d="M6.19772 15.3164C4.73409 16.7833 3.91211 18.7709 3.91211 20.8431C3.91211 22.9153 4.73409 24.9028 6.19772 26.3697L7.11872 25.4487C5.89899 24.2263 5.21398 22.5699 5.21398 20.8431C5.21398 19.1162 5.89899 17.4598 7.11872 16.2374L6.19772 15.3164Z" fill="#2B3445"/>
<path d="M17.2511 15.3164L16.3301 16.2374C17.5498 17.4598 18.2348 19.1162 18.2348 20.8431C18.2348 22.5699 17.5498 24.2263 16.3301 25.4487L17.2511 26.3697C18.7147 24.9028 19.5367 22.9153 19.5367 20.8431C19.5367 18.7709 18.7147 16.7833 17.2511 15.3164Z" fill="#2B3445"/>
</svg>
