<svg width="40" height="40" viewBox="0 0 40 40" fill="none" xmlns="http://www.w3.org/2000/svg">
<path d="M14.0485 15.5922L9.96568 4.37886L9.92797 4.23523C9.51624 2.49052 10.5825 0.745772 12.3094 0.338238C13.8696 -0.0299414 15.5078 0.453308 16.6799 1.6582L16.922 1.93408L25.4665 12.5387L33.1031 10.4965C35.8699 9.75627 38.7175 11.4225 39.4691 14.2394L39.5011 14.3672C40.1656 17.1833 38.4446 19.9996 35.6142 20.6669L27.8563 22.257L24.9092 35.7792C24.532 37.5098 23.2061 38.8655 21.4965 39.2689C19.7695 39.6765 18.0358 38.5926 17.6143 36.8038L17.5723 36.5691L16.2086 24.6448L12.0362 25.5003L11.8545 27.0681C11.6648 28.7033 10.4827 30.0402 8.89494 30.4148C7.19261 30.8166 5.48361 29.748 5.07759 28.0275L4.72635 26.5359L4.41007 26.5436C2.5944 26.5872 0.99159 25.3392 0.570375 23.5542C0.149068 21.7689 1.02578 19.936 2.6698 19.1644L2.95517 19.0305L2.602 17.537C2.23039 15.9623 3.08105 14.367 4.65897 13.7807L4.94945 13.6956C6.39719 13.354 7.91169 13.8779 8.90075 15.0993L9.0924 15.3652L9.95737 16.6864L14.0485 15.5922ZM13.0044 3.28333C12.8874 3.31094 12.8152 3.42911 12.8321 3.50353L17.9936 17.6694L8.65229 20.1679L6.6382 17.0878L6.53831 16.9475C6.32323 16.6826 5.976 16.5625 5.73414 16.6166L5.62197 16.6475C5.54355 16.6768 5.49705 16.764 5.51697 16.8484L6.43656 20.737L3.94403 21.9077C3.58494 22.0761 3.3935 22.4764 3.48551 22.8663C3.57762 23.2566 3.92827 23.5298 4.32462 23.5202L7.07744 23.4528L7.99287 27.3402C8.01493 27.4336 8.10761 27.4915 8.19994 27.4698C8.56367 27.3839 8.83446 27.0775 8.87792 26.7031L9.31062 22.9704L18.8095 21.0225L20.5281 36.1027L20.5392 36.16C20.5671 36.2782 20.6845 36.3514 20.8015 36.3238C21.3928 36.1843 21.8515 35.7154 21.9821 35.1166L25.3461 19.6827L34.9621 17.7123C36.1396 17.4344 36.8668 16.2447 36.5912 15.0767L36.57 14.9919C36.255 13.8112 35.0521 13.1074 33.8834 13.4201L24.372 15.9636L14.6463 3.89021L14.499 3.72143C14.111 3.3232 13.5441 3.15597 13.0044 3.28333Z" fill="#212121"/>
</svg>
